<?xml version="1.0" encoding="UTF-8"?>
<svg xmlns="http://www.w3.org/2000/svg" viewBox="0 0 48 48" width="48px" height="48px">
<g id="surface37346611">
<path style=" stroke:none;fill-rule:nonzero;fill:rgb(30.980393%,30.980393%,30.980393%);fill-opacity:1;" d="M 12 2 L 12 6 L 10 6 C 7.800781 6 6 7.800781 6 10 L 6 38 C 6 40.199219 7.800781 42 10 42 L 38 42 C 40.199219 42 42 40.199219 42 38 L 42 10 C 42 7.800781 40.199219 6 38 6 L 36 6 L 36 2 L 32 2 L 32 6 L 16 6 L 16 2 Z M 10 10 L 38 10 L 38 14 L 10 14 Z M 10 18 L 38 18 L 38 38 L 10 38 Z M 10 18 "/>
</g>
</svg>
